<svg width="138" height="138" viewBox="0 0 138 138" fill="none" xmlns="http://www.w3.org/2000/svg">
<rect width="138" height="138" rx="15" fill="white"/>
<path d="M44.4141 104.727H48.8281C51.0312 104.727 52.5469 106.25 52.5469 108.484C52.5469 110.688 50.9844 112.203 48.7734 112.203H46.1641V116H44.4141V104.727ZM46.1641 106.273V110.664H48.3672C49.875 110.664 50.7578 109.883 50.7578 108.484C50.7578 107.055 49.9062 106.273 48.3672 106.273H46.1641ZM57.0781 114.727C58.3438 114.727 59.2812 113.922 59.2812 112.867V112.156L57.2031 112.289C56.0312 112.367 55.5 112.766 55.5 113.516C55.5 114.281 56.1641 114.727 57.0781 114.727ZM56.6484 116.141C55.0078 116.141 53.8125 115.148 53.8125 113.594C53.8125 112.062 54.9531 111.18 56.9766 111.055L59.2812 110.922V110.188C59.2812 109.289 58.6875 108.781 57.5391 108.781C56.6016 108.781 55.9531 109.125 55.7656 109.727H54.1406C54.3125 108.266 55.6875 107.328 57.6172 107.328C59.75 107.328 60.9531 108.391 60.9531 110.188V116H59.3359V114.805H59.2031C58.6953 115.656 57.7656 116.141 56.6484 116.141ZM63.9062 119.086C63.7656 119.086 63.3672 119.07 63.2109 119.047V117.602C63.3438 117.625 63.6016 117.633 63.7578 117.633C64.5547 117.633 65.0078 117.305 65.2969 116.445L65.4219 116.031L62.3438 107.492H64.1719L66.3047 114.25H66.4375L68.5625 107.492H70.3438L67.1719 116.352C66.4453 118.422 65.6406 119.086 63.9062 119.086ZM72.0625 116V107.492H73.6797V108.859H73.8047C74.1797 107.898 75.0391 107.328 76.1719 107.328C77.3359 107.328 78.1406 107.93 78.5156 108.859H78.6484C79.0781 107.93 80.0547 107.328 81.2344 107.328C82.9531 107.328 83.9531 108.367 83.9531 110.141V116H82.2734V110.578C82.2734 109.43 81.7266 108.867 80.625 108.867C79.5391 108.867 78.8281 109.648 78.8281 110.648V116H77.1797V110.414C77.1797 109.453 76.5391 108.867 75.5391 108.867C74.5156 108.867 73.7422 109.703 73.7422 110.797V116H72.0625ZM89.8047 108.758C88.5625 108.758 87.6953 109.633 87.6016 110.961H91.8984C91.8594 109.625 91.0469 108.758 89.8047 108.758ZM91.8906 113.703H93.5078C93.125 115.227 91.7656 116.164 89.8203 116.164C87.3828 116.164 85.8906 114.492 85.8906 111.773C85.8906 109.055 87.4141 107.328 89.8125 107.328C92.1797 107.328 93.6094 108.945 93.6094 111.617V112.203H87.6016V112.297C87.6562 113.789 88.5234 114.734 89.8672 114.734C90.8828 114.734 91.5781 114.367 91.8906 113.703ZM95.625 116V107.492H97.2422V108.844H97.3672C97.7812 107.898 98.625 107.328 99.9062 107.328C101.805 107.328 102.852 108.469 102.852 110.492V116H101.172V110.914C101.172 109.547 100.578 108.867 99.3359 108.867C98.0938 108.867 97.3047 109.695 97.3047 111.023V116H95.625ZM105.812 105.375H107.492V107.531H109.336V108.945H107.492V113.32C107.492 114.211 107.859 114.602 108.695 114.602C108.953 114.602 109.102 114.586 109.336 114.562V115.961C109.062 116.008 108.75 116.047 108.422 116.047C106.555 116.047 105.812 115.391 105.812 113.75V108.945H104.461V107.531H105.812V105.375Z" fill="#202224"/>
<path opacity="0.21" fill-rule="evenodd" clip-rule="evenodd" d="M39 53V60C39 72.7025 49.2975 83 62 83H69H76C88.7025 83 99 72.7025 99 60V53V46C99 33.2975 88.7025 23 76 23H69H62C49.2975 23 39 33.2975 39 46V53Z" fill="#4AD991"/>
<path d="M58.1111 63.8889H81.4444C82.3036 63.8889 83 64.5853 83 65.4444C83 66.3036 82.3036 67 81.4444 67H56.5556C55.6964 67 55 66.3036 55 65.4444V40.5556C55 39.6964 55.6964 39 56.5556 39C57.4147 39 58.1111 39.6964 58.1111 40.5556V63.8889Z" fill="#4AD991"/>
<path opacity="0.5" d="M63.9126 57.175C63.325 57.8017 62.3406 57.8335 61.7138 57.2459C61.0871 56.6583 61.0553 55.6739 61.6429 55.0472L67.4762 48.8249C68.0445 48.2188 68.9888 48.1662 69.6208 48.7056L74.2248 52.6343L80.2235 45.0361C80.7558 44.3618 81.734 44.2467 82.4083 44.779C83.0826 45.3114 83.1977 46.2895 82.6653 46.9638L75.6653 55.8305C75.1186 56.5231 74.1059 56.6227 73.4347 56.0499L68.7306 52.0358L63.9126 57.175Z" fill="#4AD991"/>
</svg>
