<svg width="158" height="179" viewBox="0 0 158 179" fill="none" xmlns="http://www.w3.org/2000/svg">
<path d="M151.11 173.56C151.11 176.38 118.59 178.67 78.4601 178.67C38.3401 178.67 5.81006 176.38 5.81006 173.56C5.81006 170.74 38.3301 168.45 78.4601 168.45C118.59 168.45 151.11 170.74 151.11 173.56Z" fill="#263238"/>
<path d="M154.49 71.72L154.72 71.55H154.26L80.5499 16.13L6.83989 71.55H6.37988L6.60989 71.72L6.37988 71.9H6.85989L81.2099 125.37L154.25 71.9H154.72L154.49 71.72Z" fill="#1570EF" stroke="#263238" stroke-miterlimit="10" stroke-linecap="round" stroke-linejoin="round"/>
<path d="M129.11 21.68H29.6099V145.18H129.11V21.68Z" fill="white" stroke="#263238" stroke-miterlimit="10" stroke-linecap="round" stroke-linejoin="round"/>
<path d="M100.58 55.29C100.58 69.6 94.0799 77.84 87.3599 77.84C83.8899 77.84 81.8699 76.11 81.6499 72.93C80.1999 76.11 77.7499 77.92 74.2099 77.84C68.7899 77.77 66.9099 73.22 67.5599 66.78L68.3499 59.55C68.9999 52.97 71.9599 48.85 77.3099 49C80.5599 49 82.6599 50.73 83.5199 53.77L84.0299 49.29H88.9399L86.7699 70.03C86.5499 71.69 87.0599 73.14 88.8699 73.14C94.43 73.14 96.3099 62.52 96.2399 55.43C96.2399 45.39 91.5399 38.88 80.6999 38.88C66.2499 38.88 59.5299 50.88 59.5299 67.06C59.5299 79.56 65.2399 87.08 77.8099 87.08C82.8699 87.08 87.4899 86.07 92.0499 82.53L91.6199 87.52C87.2099 90.56 82.5899 91.42 77.5299 91.42C61.6299 91.42 54.6899 81.66 54.6899 66.78C54.6899 49.58 62.9299 34.48 80.8499 34.48C95.3799 34.48 100.58 43.37 100.58 55.29ZM73.1899 60.06L72.5399 66.56C72.1099 70.32 73.2599 72.99 76.6599 73.06C79.9799 73.13 81.7899 70.53 82.2199 66.63L82.9399 59.69C83.2999 56.29 81.9299 53.91 78.7499 53.91C75.4299 53.85 73.6199 56.16 73.1899 60.06Z" fill="#263238"/>
<path d="M6.37988 71.55V157.54H154.72V71.55L80.5499 114.54L6.37988 71.55Z" fill="#1570EF" stroke="#263238" stroke-miterlimit="10" stroke-linecap="round" stroke-linejoin="round"/>
<path d="M6.37988 157.54L80.5499 114.54L154.72 157.54" stroke="#263238" stroke-miterlimit="10" stroke-linecap="round" stroke-linejoin="round"/>
<path d="M7.5 46.93L14.93 52.58" stroke="#263238" stroke-miterlimit="10" stroke-linecap="round" stroke-linejoin="round"/>
<path d="M1.35986 42.26L4.38986 44.57" stroke="#263238" stroke-miterlimit="10" stroke-linecap="round" stroke-linejoin="round"/>
<path d="M11.1299 5.89L23.6199 17.83" stroke="#263238" stroke-miterlimit="10" stroke-linecap="round" stroke-linejoin="round"/>
<path d="M50.2798 6.05L51.8598 10.77" stroke="#263238" stroke-miterlimit="10" stroke-linecap="round" stroke-linejoin="round"/>
<path d="M48.5996 1L49.5196 3.77" stroke="#263238" stroke-miterlimit="10" stroke-linecap="round" stroke-linejoin="round"/>
<path d="M156.64 42.26L143.07 52.58" stroke="#263238" stroke-miterlimit="10" stroke-linecap="round" stroke-linejoin="round"/>
<path d="M142.7 9.87001L134.38 17.83" stroke="#263238" stroke-miterlimit="10" stroke-linecap="round" stroke-linejoin="round"/>
<path d="M146.87 5.89L144.08 8.55" stroke="#263238" stroke-miterlimit="10" stroke-linecap="round" stroke-linejoin="round"/>
<path d="M109.41 1L106.15 10.77" stroke="#263238" stroke-miterlimit="10" stroke-linecap="round" stroke-linejoin="round"/>
<path d="M80.6299 1V8.60001" stroke="#263238" stroke-miterlimit="10" stroke-linecap="round" stroke-linejoin="round"/>
</svg>
