<svg width="179" height="29" viewBox="0 0 179 29" fill="none" xmlns="http://www.w3.org/2000/svg">
<path d="M12.4226 23.402H8.38306V6.88463H0.872437V2.81513H19.9333V6.88463H12.4226V23.402Z" fill="#0A50CA"/>
<path d="M39.792 23.402H35.7823V13.1984C35.7823 11.5526 35.2437 10.7148 33.568 10.7148H28.3615C27.1945 10.7148 26.6559 11.1935 26.3566 12.2707V23.402H22.3769V2.27652L26.3566 0.929993V9.57769C27.2244 7.87209 28.3315 7.24371 30.2167 7.24371H33.568C38.2659 7.24371 39.792 9.33831 39.792 13.707V23.402Z" fill="#0A50CA"/>
<path d="M60.2643 23.402H49.522C45.6321 23.402 43.328 21.7563 43.328 17.7167V12.929C43.328 8.88946 45.6321 7.24371 49.522 7.24371H54.8782C58.7981 7.24371 61.1022 8.88946 61.1022 12.929V16.7292H47.3077V17.7167C47.3077 19.3625 48.1456 19.931 49.522 19.931H60.773L60.2643 23.402ZM57.0925 14.2157V13.1385C57.0925 11.403 56.4641 10.7148 54.8782 10.7148H49.522C47.9361 10.7148 47.3077 11.403 47.3077 12.929V14.2157H57.0925Z" fill="#0A50CA"/>
<path d="M75.9759 23.402H71.7568L60.5058 2.81513H65.3234L73.8813 19.0034L82.4392 2.81513H87.2867L75.9759 23.402Z" fill="#0A50CA"/>
<path d="M96.8387 23.402H91.4226C87.6224 23.402 86.2161 22.1752 86.2161 19.4522V17.6868C86.2161 14.9638 87.7421 13.8567 91.3628 13.8567H96.9284C98.5143 13.8567 99.2325 14.1559 99.8309 14.485V12.5999C99.8309 11.0738 98.9931 10.7447 96.8087 10.7447H87.4728L87.8618 7.24371H97.3174C102.584 7.24371 103.751 9.54777 103.751 12.3306V23.402C102.614 23.402 101.327 22.7737 101.028 20.8586C100.549 22.3248 99.2026 23.402 96.8387 23.402ZM99.8309 18.1955V16.7891C99.1427 16.5198 98.3647 16.3402 96.8985 16.3402H92.0211C90.7643 16.3402 90.2257 16.7592 90.2257 18.1356C90.2257 19.4821 90.7643 19.931 91.9912 19.931H96.8686C98.3049 19.931 99.5916 19.542 99.8309 18.1955Z" fill="#0A50CA"/>
<path d="M116.749 23.402H113.488C108.82 23.402 107.294 21.3074 107.294 16.9387V7.24371H111.274V17.4474C111.274 19.0931 111.872 19.931 113.488 19.931H118.216C119.353 19.931 120.011 19.1829 120.221 18.2852V7.24371H124.23V23.402C122.944 23.402 121.687 22.654 121.507 20.8287C120.939 22.5642 119.532 23.402 116.749 23.402Z" fill="#0A50CA"/>
<path d="M131.759 23.402H127.779V2.27652L131.759 0.929993V23.402Z" fill="#0A50CA"/>
<path d="M144.353 19.7814L143.755 23.2225C143.366 23.4619 142.408 23.7013 141.391 23.7013C137.351 23.7013 135.706 21.0381 135.706 15.9213V10.2061H133.88L134.359 7.24371H135.706V3.65297L139.715 2.33636V7.24371H143.067L142.588 10.2061H139.715V15.9213C139.715 18.764 140.553 20.2003 142.558 20.2003C143.396 20.2003 143.994 20.0507 144.353 19.7814Z" fill="#0A50CA"/>
<path d="M150.757 23.402H146.717V2.81513H150.757V23.402Z" fill="#0A50CA"/>
<path d="M175.016 26.2746L171.814 28.07L167.834 23.402H160.832C156.075 23.402 154.399 21.5767 154.399 16.7292V9.48792C154.399 4.64042 156.075 2.81513 160.832 2.81513H171.694C176.452 2.81513 178.128 4.64042 178.128 9.48792V16.7292C178.128 21.3673 176.721 23.1327 172.383 23.3123L175.016 26.2746ZM174.088 16.7592V9.51784C174.088 7.48309 173.46 6.88463 171.664 6.88463H160.832C159.037 6.88463 158.409 7.48309 158.409 9.51784V16.7592C158.409 18.7939 158.977 19.3625 160.832 19.3625H171.664C173.52 19.3625 174.088 18.7939 174.088 16.7592Z" fill="#0A50CA"/>
</svg>
